<?xml version="1.0" standalone="no"?><!DOCTYPE svg PUBLIC "-//W3C//DTD SVG 1.1//EN" "http://www.w3.org/Graphics/SVG/1.1/DTD/svg11.dtd"><svg t="1643192730724" class="icon" viewBox="0 0 1366 1024" version="1.1" xmlns="http://www.w3.org/2000/svg" p-id="3587" xmlns:xlink="http://www.w3.org/1999/xlink" width="192.09375" height="144"><defs><style type="text/css"></style></defs><path d="M450.922842 24.950479 24.993146 450.88318C-8.27416 484.150485-8.27416 538.087396 24.993146 571.354702L450.922841 997.284395C484.190146 1030.54569 538.127057 1030.54569 571.394362 997.284395 604.664673 964.017092 604.664673 910.077175 571.394362 876.812877L290.882159 596.303677 1277.833259 596.303677C1324.882304 596.303677 1363.020996 558.16498 1363.020996 511.115934 1363.020996 464.066888 1324.885308 425.928191 1277.833259 425.928191L290.882159 425.928193 571.391357 145.418994C588.02501 128.785341 596.343339 106.982786 596.343339 85.186239 596.343339 63.386687 588.028015 41.584131 571.394362 24.950479 538.124052-8.316826 484.193152-8.316826 450.922842 24.950479L450.922842 24.950479Z" p-id="3588"></path></svg>